<?xml version="1.0" encoding="UTF-8" standalone="no"?>
<!DOCTYPE svg PUBLIC "-//W3C//DTD SVG 1.1//EN" "http://www.w3.org/Graphics/SVG/1.1/DTD/svg11.dtd">
<svg xmlns="http://www.w3.org/2000/svg" version="1.1" viewBox="0.00 0.00 1773.00 1773.00">
<path fill="#ff9500" d="
  M 967.61 291.82
  L 1170.42 291.82
  A 0.43 0.43 0.0 0 1 1170.81 292.07
  L 1274.61 523.21
  A 0.43 0.43 0.0 0 1 1274.22 523.82
  L 1068.29 523.82
  A 0.43 0.43 0.0 0 1 1067.90 523.56
  L 967.21 292.42
  A 0.43 0.43 0.0 0 1 967.61 291.82
  Z"
/>
<path fill="#ff9500" d="
  M 1390.36 1489.18
  A 0.35 0.34 77.7 0 1 1390.05 1489.67
  L 1170.37 1489.67
  A 1.09 1.08 -11.4 0 1 1169.37 1489.01
  L 1029.62 1165.45
  A 1.05 1.04 -11.5 0 0 1028.66 1164.82
  L 456.90 1164.82
  A 0.74 0.74 0.0 0 0 456.23 1165.25
  L 308.18 1489.18
  A 0.85 0.85 0.0 0 1 307.41 1489.67
  L 91.05 1489.67
  A 0.42 0.41 -77.5 0 1 90.68 1489.08
  L 647.73 292.32
  A 0.51 0.51 0.0 0 1 648.19 292.03
  L 852.46 292.03
  A 0.55 0.53 -11.4 0 1 852.96 292.35
  L 1390.36 1489.18
  Z
  M 748.99 520.72
  A 0.31 0.31 0.0 0 0 748.42 520.71
  L 540.96 974.62
  A 0.31 0.31 0.0 0 0 541.24 975.06
  L 946.43 975.06
  A 0.31 0.31 0.0 0 0 946.71 974.63
  L 748.99 520.72
  Z"
/>
<path fill="#ff9500" d="
  M 1121.37 644.32
  L 1328.76 644.32
  A 0.34 0.34 0.0 0 1 1329.07 644.52
  L 1708.34 1489.19
  A 0.34 0.34 0.0 0 1 1708.03 1489.67
  L 1489.31 1489.67
  A 0.34 0.34 0.0 0 1 1489.00 1489.47
  L 1121.06 644.80
  A 0.34 0.34 0.0 0 1 1121.37 644.32
  Z"
/>
</svg>
